HIERARCHY
ROOT Hips
{
  OFFSET 263.056 91.6644 -274.608
  CHANNELS 6 Xposition Yposition Zposition Zrotation Xrotation Yrotation
  JOINT LeftUpLeg
  {
    OFFSET 8.64259 1.95398 -2.38835
    CHANNELS 3 Zrotation Xrotation Yrotation
    JOINT LeftLeg
    {
      OFFSET 43.7702 0 0
      CHANNELS 3 Zrotation Xrotation Yrotation
      JOINT LeftFoot
      {
        OFFSET 40.6238 0 0
        CHANNELS 3 Zrotation Xrotation Yrotation
        JOINT LeftToeBase
        {
          OFFSET 12.7242 0 0
          CHANNELS 3 Zrotation Xrotation Yrotation
          End Site
          {
            OFFSET 0 0 0
          }
        }
      }
    }
  }
  JOINT RightUpLeg
  {
    OFFSET -8.2249 1.95398 -2.59336
    CHANNELS 3 Zrotation Xrotation Yrotation
    JOINT RightLeg
    {
      OFFSET 43.5653 0 0
      CHANNELS 3 Zrotation Xrotation Yrotation
      JOINT RightFoot
      {
        OFFSET 40.6238 0 0
        CHANNELS 3 Zrotation Xrotation Yrotation
        JOINT RightToeBase
        {
          OFFSET 12.7242 0 0
          CHANNELS 3 Zrotation Xrotation Yrotation
          End Site
          {
            OFFSET 0 0 0
          }
        }
      }
    }
  }
  JOINT Spine
  {
    OFFSET 0.165834 0.87714 6.61349
    CHANNELS 3 Zrotation Xrotation Yrotation
    JOINT Spine1
    {
      OFFSET 7.38963 1.71661e-005 0
      CHANNELS 3 Zrotation Xrotation Yrotation
      JOINT Spine2
      {
        OFFSET 11.9445 1.14441e-005 0
        CHANNELS 3 Zrotation Xrotation Yrotation
        JOINT Spine3
        {
          OFFSET 14.7254 4.19617e-005 0
          CHANNELS 3 Zrotation Xrotation Yrotation
          JOINT Spine4
          {
            OFFSET 10.9679 0 0
            CHANNELS 3 Zrotation Xrotation Yrotation
            JOINT RightShoulder
            {
              OFFSET 2.46616 -1.6653 3.69651
              CHANNELS 3 Zrotation Xrotation Yrotation
              JOINT RightArm
              {
                OFFSET 13.0012 0 0
                CHANNELS 3 Zrotation Xrotation Yrotation
                JOINT RightForeArm
                {
                  OFFSET 28.7848 1.52588e-005 0
                  CHANNELS 3 Zrotation Xrotation Yrotation
                  JOINT RightHand
                  {
                    OFFSET 26.5688 1.52588e-005 0
                    CHANNELS 3 Zrotation Xrotation Yrotation
                    End Site
                    {
                      OFFSET 0 0 0
                    }
                  }
                }
              }
            }
            JOINT LeftShoulder
            {
              OFFSET 2.38034 -1.29275 -3.7523
              CHANNELS 3 Zrotation Xrotation Yrotation
              JOINT LeftArm
              {
                OFFSET 16.3182 6.10352e-005 0
                CHANNELS 3 Zrotation Xrotation Yrotation
                JOINT LeftForeArm
                {
                  OFFSET 27.0901 0 0
                  CHANNELS 3 Zrotation Xrotation Yrotation
                  JOINT LeftHand
                  {
                    OFFSET 24.5451 1.52588e-005 0
                    CHANNELS 3 Zrotation Xrotation Yrotation
                    End Site
                    {
                      OFFSET 0 0 0
                    }
                  }
                }
              }
            }
            JOINT Neck
            {
              OFFSET 5.0226 -0.0266342 0
              CHANNELS 3 Zrotation Xrotation Yrotation
              JOINT Head
              {
                OFFSET 6.69364 2.86102e-005 0
                CHANNELS 3 Zrotation Xrotation Yrotation
                End Site
                {
                  OFFSET 0 0 0
                }
              }
            }
          }
        }
      }
    }
  }
}
MOTION
Frames:	7
Frame Time:	0.0416667
-63.8121 47.9756 14.7704 43.4897 3.08017 83.4978 -172.609 31.1467 97.6786 -76.7142 16.3975 -0.138804 51.6326 2.51625 13.4424 55.9606 44.814 28.7156 149.919 69.8192 121.115 -123.031 6.14685 -6.24716 57.0561 -1.60375 -2.55979 67.0689 13.7615 38.5391 -0.263066 9.7712 -91.041 7.3186 -0.974732 -2.00726 -4.35346 -1.06212 -1.96243 -26.8767 -0.326571 -2.2073 -6.86411 -0.326579 -2.20732 90.9367 -9.29088 -115.729 -9.68275 26.1748 -28.4097 -18.7253 -17.3178 -47.9087 -38.4018 -5.34372 12.3126 -100.264 -24.2713 50.8546 43.4298 -15.1151 -14.8324 -0.494291 -2.01712 -33.1713 24.892 1.66922 2.98293 22.1313 -13.3516 4.02818 18.4076 -15.8202 -9.63995 
-64.9532 48.4898 16.6256 47.0799 5.90434 81.594 -175.755 30.7847 97.8574 -78.6485 18.5381 0.577738 50.0437 -0.465894 10.0413 51.6121 39.8922 32.3238 149.07 68.0244 119.729 -123.566 7.10663 -6.2897 57.9601 -2.34651 -3.05499 68.7102 12.2957 31.8945 -0.143995 9.79149 -91.1152 7.27862 -0.76865 -2.16367 -4.39385 -0.863122 -2.12778 -26.9146 -0.0830415 -2.29461 -6.902 -0.0830457 -2.29459 89.7026 -10.7749 -117.996 -11.2841 26.3447 -23.5009 -20.6491 -18.7113 -47.9929 -36.3714 -5.02875 12.4397 -102.625 -26.9617 48.3168 39.1171 -14.1802 -15.2083 2.27765 0.545707 -43.0389 26.1086 2.033 3.94279 21.6228 -14.2386 7.16079 17.6238 -17.553 -9.60083 
-66.2093 49.0081 17.9729 50.8217 9.07739 79.1253 -178.861 32.0583 97.6515 -81.8588 19.5842 1.12608 47.8561 -3.46826 6.68877 50.8957 36.4657 28.9415 151.25 67.4423 114.654 -124.416 7.39162 -6.33186 57.7508 -2.56967 -3.24324 66.1326 13.0854 37.6584 -0.00672753 9.80016 -91.1948 7.26213 -0.528676 -2.33154 -4.41074 -0.630755 -2.30605 -26.9291 0.196286 -2.38263 -6.91648 0.196267 -2.38263 88.5075 -11.778 -120.372 -14.6028 25.8614 -17.1906 -18.7171 -18.1595 -44.8853 -34.2175 -4.55447 11.7329 -105.321 -29.7596 45.5008 30.4499 -10.7429 -12.7891 7.70753 2.4921 -58.1006 25.653 2.43453 5.72316 21.7163 -15.7705 10.7085 16.5936 -20.0775 -9.93008 
-67.6626 49.5716 19.25 55.1708 12.7247 76.644 179.849 35.6114 98.2351 -87.1718 19.5498 1.12608 47.0758 -3.85134 7.99617 54.4516 34.6604 15.5948 151.681 66.3789 110.546 -125.003 6.20177 -6.39488 56.416 -2.18567 -3.0456 63.2812 12.2723 39.1309 0.223856 9.72533 -91.1765 7.41676 -0.061995 -2.31768 -4.25625 -0.163899 -2.31273 -26.7757 0.637263 -2.22926 -6.76308 0.637272 -2.22925 86.777 -16.4483 -121.041 -20.6524 23.2365 -11.7449 -16.6961 -18.333 -40.6129 -29.1874 -4.17494 12.8757 -109.077 -32.7441 41.3419 22.0232 -3.11118 -7.34448 14.0886 2.21069 -71.6305 22.278 2.38728 6.90173 20.7067 -18.2241 10.4265 16.252 -21.8677 -7.98498 
-69.2702 50.4198 20.6667 60.0477 17.1996 73.7796 -179.581 41.1197 98.4775 -91.7075 12.8078 1.48026 49.4969 0.237948 12.7832 58.2304 36.0076 8.65374 148.938 64.7761 108.018 -124.257 8.24509 -6.6522 53.8346 -2.04433 -2.97648 63.3971 12.4323 39.538 0.27594 9.78443 -91.0272 7.30171 0.107782 -2.03137 -4.37084 0.0182864 -2.03416 -26.8944 0.713191 -1.90517 -6.8818 0.713194 -1.90517 86.6212 -18.2199 -120.162 -23.7397 19.1888 -7.74732 -13.3173 -19.5134 -35.1365 -25.1404 -3.15758 10.8012 -108.924 -34.534 42.7609 12.6914 5.75791 -4.45245 18.6107 2.11208 -75.6478 17.0409 1.83673 6.87694 20.5793 -20.3499 10.7219 15.8377 -23.7765 -7.15924 
-70.8672 51.3477 22.2289 65.377 19.8503 70.8206 -176.704 46.5658 98.289 -94.7261 7.61272 1.61342 52.9745 4.13868 14.3307 54.7437 32.6808 10.5976 149.189 62.8956 104.506 -124.26 6.34347 -6.70019 53.58 -2.10805 -3.23293 64.5867 13.1991 40.2852 0.36187 9.93502 -90.7641 7.00426 0.394834 -1.52211 -4.66754 0.327472 -1.53802 -27.1974 0.834025 -1.33312 -7.18475 0.83401 -1.33314 86.3409 -22.014 -118.277 -23.5024 21.7249 -5.00831 -14.4894 -16.0194 -40.4336 -13.7633 -1.69661 10.0368 -108.877 -35.7734 43.6248 4.14063 12.5139 1.13741 18.3657 3.46441 -72.5931 18.3415 2.10674 7.62036 15.9034 -22.5513 8.33873 18.4764 -24.9287 -6.24977 
-72.3512 52.2095 23.3698 70.1292 22.5175 68.8389 -173.213 52.7341 97.4044 -97.2416 4.97894 1.65182 57.1523 7.90198 14.6915 56.4655 33.0224 6.74153 147.797 61.2193 102.583 -124.182 4.57107 -6.66701 52.8087 -2.04053 -3.5107 65.5337 12.6782 37.1753 0.370012 10.0629 -90.5102 6.74923 0.521329 -1.02554 -4.92205 0.47572 -1.04747 -27.4558 0.805441 -0.821455 -7.44313 0.80545 -0.821437 85.5002 -27.3456 -116.939 -23.2445 23.5041 -4.16653 -14.2066 -13.5624 -42.197 -8.95813 -1.00301 7.90029 -108.149 -35.882 44.8255 -3.7845 14.961 7.99162 17.7002 6.237 -67.5437 21.2281 2.77596 9.28813 10.5255 -24.4043 4.24527 21.0585 -25.4527 -4.87953 
